<?xml version="1.0" encoding="UTF-8"?>
<svg width="800" height="600" viewBox="0 0 800 600" xmlns="http://www.w3.org/2000/svg">
  <!-- Fondo suave -->
  <defs>
    <linearGradient id="lavender" x1="0" y1="0" x2="1" y2="1">
      <stop offset="0%"  stop-color="#E8D9FF" stop-opacity="0.35"/>
      <stop offset="100%" stop-color="#F7C3E3" stop-opacity="0.25"/>
    </linearGradient>
  </defs>
  <rect width="800" height="600" fill="url(#lavender)"/>

  <!-- Lavanda (esquina inferior derecha, sutil) -->
  <g opacity="0.35" transform="translate(560,420)">
    <path d="M10 160 C 40 90, 50 40, 60 0" stroke="#7D5BA6" stroke-width="2" fill="none" />
    <!-- flores -->
    <g fill="#B79FE6">
      <circle cx="60" cy="0" r="5"/>
      <circle cx="52" cy="22" r="4"/>
      <circle cx="44" cy="40" r="3.5"/>
      <circle cx="36" cy="58" r="3.5"/>
      <circle cx="28" cy="78" r="3.2"/>
      <circle cx="20" cy="98" r="3"/>
      <circle cx="12" cy="120" r="2.8"/>
    </g>
  </g>

  <!-- Flores suaves dispersas -->
  <g opacity="0.18">
    <circle cx="90" cy="120" r="10" fill="#FFCDE1"/>
    <circle cx="160" cy="80" r="6" fill="#E8D9FF"/>
    <circle cx="240" cy="160" r="8" fill="#FFD9B8"/>
    <circle cx="320" cy="60" r="7" fill="#E8D9FF"/>
    <circle cx="520" cy="200" r="9" fill="#FFCDE1"/>
    <circle cx="700" cy="100" r="7" fill="#FFD9B8"/>
  </g>

  <!-- Colibrí estilizado (volando hacia el centro/alma) -->
  <g transform="translate(380,220) rotate(-8)" opacity="0.32">
    <!-- ala -->
    <path d="M0 0 C -40 -30, -80 -40, -120 -10 C -60 -5, -20 15, 0 0" fill="#A88BD9"/>
    <!-- cuerpo -->
    <ellipse cx="18" cy="10" rx="18" ry="10" fill="#8E73C5"/>
    <!-- pico hacia el centro -->
    <path d="M35,8 L65,6" stroke="#6E54A6" stroke-width="2" />
    <!-- cola -->
    <path d="M10,20 C 5,40 -10,50 -20,55" stroke="#8E73C5" stroke-width="3" fill="none"/>
  </g>

  <!-- Motas de luz -->
  <g opacity="0.15">
    <circle cx="640" cy="360" r="3" fill="#ffffff"/>
    <circle cx="610" cy="340" r="2.5" fill="#ffffff"/>
    <circle cx="620" cy="380" r="2.5" fill="#ffffff"/>
    <circle cx="120" cy="300" r="2.5" fill="#ffffff"/>
    <circle cx="200" cy="420" r="2.5" fill="#ffffff"/>
  </g>
</svg>
